<?xml version="1.0" standalone="no"?>
<!DOCTYPE svg PUBLIC "-//W3C//DTD SVG 20010904//EN"
 "http://www.w3.org/TR/2001/REC-SVG-20010904/DTD/svg10.dtd">
<svg version="1.0" xmlns="http://www.w3.org/2000/svg"
 width="700.000000pt" height="700.000000pt" viewBox="0 0 700.000000 700.000000"
 preserveAspectRatio="xMidYMid meet">
<metadata>
Created by potrace 1.14, written by Peter Selinger 2001-2017
</metadata>
<g transform="translate(0.000000,700.000000) scale(0.100000,-0.100000)"
fill="#000000" stroke="none">
<path d="M3280 5948 c-85 -49 -177 -102 -205 -117 -27 -16 -90 -52 -140 -81
-49 -29 -110 -64 -135 -78 -25 -14 -76 -44 -115 -67 -38 -22 -77 -44 -85 -48
-8 -4 -80 -45 -160 -92 -80 -47 -225 -131 -323 -187 -98 -57 -192 -111 -210
-122 -104 -60 -817 -472 -840 -485 -16 -9 -42 -23 -58 -31 l-29 -15 48 -85
c27 -47 58 -101 69 -120 11 -19 104 -181 207 -360 103 -179 202 -350 220 -380
18 -30 195 -335 392 -678 197 -343 366 -631 374 -640 9 -9 33 -51 54 -92 71
-139 106 -194 204 -317 131 -165 275 -283 498 -409 98 -55 355 -147 409 -145
2 0 19 -4 37 -10 84 -24 378 -33 513 -16 73 9 239 48 326 77 214 72 468 235
637 410 61 62 192 231 192 247 0 6 7 16 15 23 38 32 170 334 189 436 2 10 9
37 14 59 47 179 50 473 7 677 -73 347 -256 659 -524 895 -77 67 -239 183 -257
183 -4 0 -15 6 -23 13 -17 14 -196 98 -215 101 -6 1 -16 5 -22 9 -22 13 -214
62 -284 72 -25 3 -53 8 -64 12 -10 3 -80 6 -155 7 -290 6 -504 -41 -756 -165
-118 -58 -176 -94 -276 -171 -135 -103 -264 -242 -358 -386 l-54 -82 -108 186
c-60 103 -109 188 -109 191 0 2 -11 22 -26 44 -61 98 -74 129 -54 129 6 0 29
11 51 26 22 14 55 33 72 43 18 10 77 44 132 76 55 32 156 90 225 130 144 83
397 229 620 358 201 116 407 235 445 256 17 9 67 38 112 65 l82 48 -48 81
c-62 106 -184 318 -278 482 -41 71 -75 130 -76 131 -1 1 -72 -38 -157 -88z
m655 -2173 c206 -36 398 -158 521 -331 291 -405 139 -992 -310 -1198 -410
-189 -894 -13 -1077 391 -59 128 -74 200 -74 343 1 116 8 166 39 256 94 275
321 475 606 534 85 18 214 20 295 5z"/>
</g>
</svg>
