<svg width="89" height="89" viewBox="0 0 89 89" fill="none" xmlns="http://www.w3.org/2000/svg">
<rect x="0.609375" y="0.6875" width="87.8472" height="87.8472" rx="21.0833" fill="white"/>
<path fill-rule="evenodd" clip-rule="evenodd" d="M20.0307 41.7135C34.1766 35.7815 43.5937 31.8399 48.3225 29.9276C61.7813 24.503 64.6105 23.5664 66.4292 23.5273C66.8334 23.5273 67.7225 23.6054 68.3288 24.0737C68.8138 24.464 68.9351 24.9713 69.0159 25.3616C69.0967 25.7518 69.1776 26.5714 69.0967 27.1958C68.3692 34.6107 65.2167 52.6017 63.6 60.8753C62.913 64.3876 61.5792 65.5584 60.2859 65.6755C57.4567 65.9096 55.3146 63.8803 52.6067 62.1631C48.3225 59.4703 45.9379 57.7922 41.775 55.1384C36.9654 52.0944 40.0775 50.4163 42.8258 47.6845C43.5533 46.982 55.9613 36.0547 56.2038 35.0791C56.2442 34.962 56.2442 34.4937 55.9613 34.2595C55.6784 34.0253 55.2742 34.1034 54.9508 34.1815C54.5063 34.2595 47.7162 38.6304 34.5 47.2552C32.5599 48.543 30.822 49.1675 29.2458 49.1284C27.5079 49.0894 24.1937 48.1918 21.6878 47.4113C18.6566 46.4747 16.2316 45.9673 16.4337 44.3282C16.5549 43.4697 17.7674 42.6111 20.0307 41.7135V41.7135Z" fill="black"/>
</svg>
