<svg width="89" height="89" viewBox="0 0 89 89" fill="none" xmlns="http://www.w3.org/2000/svg">
<rect x="0.597656" y="0.6875" width="87.8472" height="87.8472" rx="21.0833" fill="white"/>
<path fill-rule="evenodd" clip-rule="evenodd" d="M73.015 29.4231C73.4305 28.0499 73.015 27.042 71.0405 27.042H64.5055C62.8437 27.042 62.0782 27.9112 61.6627 28.8729C61.6627 28.8729 58.3392 36.8948 53.6293 42.1101C52.1075 43.6174 51.412 44.0982 50.5811 44.0982C50.1657 44.0982 49.5635 43.6174 49.5635 42.2488V29.4231C49.5682 27.7771 49.0874 27.042 47.701 27.042H37.4317C36.3954 27.042 35.7699 27.8049 35.7699 28.5308C35.7699 30.0889 38.1225 30.4495 38.3653 34.8419V44.3756C38.3653 46.4655 37.9825 46.8446 37.1516 46.8446C34.9343 46.8446 29.5476 38.7858 26.3501 29.5618C25.7246 27.7679 25.0991 27.042 23.428 27.042H16.8929C15.0258 27.042 14.6523 27.9112 14.6523 28.8729C14.6523 30.5882 16.8696 39.0909 24.9684 50.3354C30.3691 58.0151 37.9778 62.1809 44.9003 62.1809C49.0547 62.1809 49.5682 61.2562 49.5682 59.6611V53.8585C49.5682 52.0091 49.9603 51.6392 51.2767 51.6392C52.2476 51.6392 53.9093 52.1201 57.7837 55.8235C62.2135 60.2113 62.9464 62.1809 65.439 62.1809H71.9741C73.8413 62.1809 74.7748 61.2562 74.238 59.4299C73.6499 57.6128 71.5353 54.9728 68.7252 51.8426C67.2035 50.058 64.9162 48.1392 64.2254 47.1775C63.2545 45.943 63.5345 45.3928 64.2254 44.297C64.2254 44.297 72.1888 33.1867 73.0197 29.4139L73.015 29.4231Z" fill="black"/>
</svg>
