<svg width="441" height="89" viewBox="0 0 441 89" fill="none" xmlns="http://www.w3.org/2000/svg">
<rect x="0.84375" y="0.194336" width="439.236" height="87.8472" rx="31.625" fill="white"/>
<path d="M113.007 43.9795C113.007 41.4705 113.26 39.3411 113.766 37.5912C114.293 35.8413 115.115 34.4498 116.233 33.4167C117.35 32.3625 118.816 31.6457 120.629 31.2662C121.809 31.0132 122.99 30.7813 124.171 30.5705C125.351 30.3596 126.479 30.1699 127.555 30.0012L128.029 32.9423C127.502 33.0056 126.933 33.0899 126.321 33.1953C125.71 33.3008 125.088 33.4062 124.455 33.5116C123.823 33.617 123.211 33.7224 122.621 33.8278C122.052 33.9333 121.546 34.0387 121.103 34.1441C120.365 34.2706 119.722 34.492 119.174 34.8082C118.647 35.1245 118.204 35.5461 117.846 36.0732C117.487 36.6003 117.203 37.275 116.992 38.0972C116.781 38.8984 116.655 39.8788 116.612 41.0383H116.802C117.055 40.6378 117.414 40.2266 117.877 39.805C118.341 39.3833 118.9 39.0354 119.553 38.7613C120.228 38.4662 120.987 38.3186 121.83 38.3186C123.159 38.3186 124.297 38.6348 125.246 39.2673C126.195 39.8788 126.912 40.7537 127.396 41.8922C127.881 43.0096 128.124 44.3484 128.124 45.9086C128.124 47.8272 127.797 49.4295 127.143 50.7156C126.511 51.9806 125.625 52.9293 124.487 53.5618C123.37 54.1943 122.052 54.5106 120.534 54.5106C119.395 54.5106 118.362 54.2892 117.435 53.8465C116.507 53.3826 115.716 52.708 115.063 51.8225C114.409 50.9159 113.903 49.809 113.545 48.5018C113.186 47.1947 113.007 45.6872 113.007 43.9795ZM120.787 51.7592C121.546 51.7592 122.199 51.58 122.748 51.2216C123.317 50.8632 123.76 50.2834 124.076 49.4822C124.392 48.681 124.55 47.6058 124.55 46.2565C124.55 44.633 124.287 43.347 123.76 42.3982C123.233 41.4495 122.358 40.9751 121.135 40.9751C120.376 40.9751 119.68 41.1754 119.047 41.576C118.415 41.9555 117.877 42.3877 117.435 42.8726C117.013 43.3575 116.707 43.7686 116.517 44.106C116.517 45.0969 116.581 46.0456 116.707 46.9522C116.855 47.8588 117.087 48.6705 117.403 49.3873C117.719 50.1042 118.141 50.684 118.668 51.1267C119.216 51.5484 119.922 51.7592 120.787 51.7592ZM146.378 45.6556C146.378 47.0682 146.198 48.3226 145.84 49.419C145.482 50.5153 144.965 51.443 144.29 52.202C143.637 52.961 142.836 53.5408 141.887 53.9413C140.938 54.3208 139.873 54.5106 138.693 54.5106C137.618 54.5106 136.616 54.3208 135.688 53.9413C134.761 53.5408 133.96 52.961 133.285 52.202C132.61 51.443 132.083 50.5153 131.704 49.419C131.345 48.3226 131.166 47.0576 131.166 45.624C131.166 43.7475 131.472 42.1558 132.083 40.8486C132.695 39.5414 133.57 38.5505 134.708 37.8758C135.868 37.1801 137.238 36.8322 138.819 36.8322C140.295 36.8322 141.602 37.1801 142.741 37.8758C143.879 38.5505 144.765 39.5414 145.397 40.8486C146.051 42.1558 146.378 43.7581 146.378 45.6556ZM134.708 45.6556C134.708 46.9206 134.845 48.0169 135.119 48.9446C135.414 49.8512 135.857 50.5469 136.447 51.0318C137.059 51.5168 137.828 51.7592 138.756 51.7592C139.705 51.7592 140.474 51.5168 141.065 51.0318C141.676 50.5469 142.119 49.8512 142.393 48.9446C142.688 48.0169 142.836 46.9206 142.836 45.6556C142.836 44.3484 142.688 43.2521 142.393 42.3666C142.098 41.4811 141.655 40.8064 141.065 40.3426C140.474 39.8577 139.694 39.6152 138.724 39.6152C137.312 39.6152 136.289 40.1423 135.657 41.1965C135.024 42.2506 134.708 43.737 134.708 45.6556ZM162.107 39.8366H156.826V54.1943H153.442V39.8366H148.224V37.1485H162.107V39.8366ZM186.383 41.4811C186.383 42.5142 186.098 43.3364 185.529 43.9478C184.96 44.5382 184.18 44.9388 183.189 45.1496V45.2761C184.243 45.4237 185.118 45.8137 185.814 46.4462C186.531 47.0576 186.889 47.9642 186.889 49.166C186.889 49.9039 186.763 50.5785 186.51 51.19C186.278 51.8014 185.888 52.339 185.339 52.8028C184.812 53.2456 184.117 53.5935 183.252 53.8465C182.388 54.0784 181.344 54.1943 180.121 54.1943H172.911V37.1485H180.121C181.344 37.1485 182.43 37.2855 183.379 37.5596C184.327 37.8337 185.065 38.287 185.592 38.9195C186.119 39.552 186.383 40.4058 186.383 41.4811ZM183.379 49.1027C183.379 48.2172 183.073 47.5847 182.462 47.2052C181.871 46.8046 180.986 46.6043 179.805 46.6043H176.326V51.6643H179.837C180.975 51.6643 181.85 51.4746 182.462 51.0951C183.073 50.6945 183.379 50.0304 183.379 49.1027ZM182.936 41.8606C182.936 41.1227 182.693 40.585 182.209 40.2477C181.745 39.9104 180.996 39.7417 179.963 39.7417H176.326V44.0427H179.489C180.627 44.0427 181.481 43.874 182.05 43.5367C182.641 43.1783 182.936 42.6196 182.936 41.8606ZM206.045 54.1943H202.567V34.5552H196.305V31.6141H212.276V34.5552H206.045V54.1943ZM219.48 36.8322C220.893 36.8322 222.116 37.1485 223.149 37.781C224.182 38.3924 224.973 39.2779 225.521 40.4375C226.09 41.597 226.375 42.9675 226.375 44.5487V46.383H215.654C215.696 48.1329 216.118 49.4717 216.919 50.3993C217.72 51.327 218.848 51.7908 220.303 51.7908C221.336 51.7908 222.253 51.696 223.054 51.5062C223.876 51.2954 224.709 50.9897 225.552 50.5891V53.3721C224.751 53.7516 223.929 54.0362 223.086 54.226C222.263 54.4157 221.262 54.5106 220.081 54.5106C218.542 54.5106 217.172 54.1838 215.97 53.5302C214.768 52.8766 213.83 51.9068 213.155 50.6207C212.481 49.3135 212.143 47.7112 212.143 45.8137C212.143 43.8951 212.449 42.2717 213.06 40.9435C213.672 39.6152 214.526 38.6032 215.622 37.9075C216.739 37.1906 218.026 36.8322 219.48 36.8322ZM219.48 39.4255C218.405 39.4255 217.541 39.8155 216.887 40.5956C216.233 41.3757 215.854 42.4825 215.749 43.9162H222.991C222.991 43.0307 222.864 42.2506 222.611 41.576C222.358 40.9013 221.968 40.3742 221.441 39.9947C220.935 39.6152 220.281 39.4255 219.48 39.4255ZM233.616 54.1943H230.2V30.1593H233.616V54.1943ZM244.867 36.8322C246.279 36.8322 247.502 37.1485 248.535 37.781C249.568 38.3924 250.359 39.2779 250.907 40.4375C251.476 41.597 251.761 42.9675 251.761 44.5487V46.383H241.04C241.082 48.1329 241.504 49.4717 242.305 50.3993C243.106 51.327 244.234 51.7908 245.689 51.7908C246.722 51.7908 247.639 51.696 248.44 51.5062C249.263 51.2954 250.095 50.9897 250.939 50.5891V53.3721C250.138 53.7516 249.315 54.0362 248.472 54.226C247.65 54.4157 246.648 54.5106 245.468 54.5106C243.929 54.5106 242.558 54.1838 241.356 53.5302C240.155 52.8766 239.216 51.9068 238.542 50.6207C237.867 49.3135 237.53 47.7112 237.53 45.8137C237.53 43.8951 237.836 42.2717 238.447 40.9435C239.058 39.6152 239.912 38.6032 241.009 37.9075C242.126 37.1906 243.412 36.8322 244.867 36.8322ZM244.867 39.4255C243.792 39.4255 242.927 39.8155 242.274 40.5956C241.62 41.3757 241.24 42.4825 241.135 43.9162H248.377C248.377 43.0307 248.251 42.2506 247.998 41.576C247.745 40.9013 247.355 40.3742 246.828 39.9947C246.322 39.6152 245.668 39.4255 244.867 39.4255ZM261.121 36.8322C262.154 36.8322 263.071 37.043 263.872 37.4647C264.695 37.8864 265.39 38.5294 265.96 39.3938H266.086L266.466 37.1485H269.28V54.4157C269.28 56.018 269.006 57.3674 268.458 58.4637C267.91 59.56 267.077 60.3823 265.96 60.9305C264.842 61.4997 263.43 61.7843 261.722 61.7843C260.541 61.7843 259.466 61.7 258.496 61.5313C257.547 61.3627 256.662 61.0991 255.84 60.7407V57.7996C256.388 58.0948 256.978 58.3372 257.611 58.527C258.243 58.7378 258.907 58.8854 259.603 58.9697C260.32 59.0751 261.058 59.1278 261.817 59.1278C263.124 59.1278 264.125 58.7273 264.821 57.9261C265.538 57.146 265.896 56.0391 265.896 54.6055V54.0362C265.896 53.7621 265.907 53.4037 265.928 52.961C265.949 52.4971 265.97 52.1598 265.991 51.949H265.865C265.338 52.8345 264.674 53.488 263.872 53.9097C263.092 54.3103 262.165 54.5106 261.089 54.5106C259.108 54.5106 257.547 53.741 256.409 52.202C255.27 50.6418 254.701 48.4808 254.701 45.7188C254.701 43.8635 254.954 42.2823 255.46 40.9751C255.987 39.6468 256.725 38.6243 257.674 37.9075C258.644 37.1906 259.793 36.8322 261.121 36.8322ZM261.943 39.6152C261.142 39.6152 260.467 39.8577 259.919 40.3426C259.371 40.8064 258.949 41.4916 258.654 42.3982C258.38 43.3048 258.243 44.4222 258.243 45.7505C258.243 47.7323 258.559 49.2398 259.192 50.2728C259.824 51.3059 260.752 51.8225 261.975 51.8225C262.692 51.8225 263.303 51.717 263.809 51.5062C264.315 51.2954 264.726 50.9686 265.043 50.5258C265.38 50.0831 265.622 49.5244 265.77 48.8497C265.939 48.154 266.023 47.3212 266.023 46.3513V45.7188C266.023 44.2641 265.875 43.094 265.58 42.2085C265.306 41.3019 264.863 40.6483 264.252 40.2477C263.662 39.826 262.892 39.6152 261.943 39.6152ZM282.214 36.8322C282.488 36.8322 282.793 36.8533 283.131 36.8955C283.468 36.9165 283.753 36.9482 283.985 36.9903L283.637 40.1212C283.405 40.058 283.141 40.0053 282.846 39.9631C282.551 39.9209 282.256 39.8998 281.961 39.8998C281.391 39.8998 280.843 40.0263 280.316 40.2793C279.789 40.5113 279.315 40.8591 278.893 41.323C278.471 41.7657 278.134 42.3139 277.881 42.9675C277.628 43.621 277.502 44.3695 277.502 45.2128V54.1943H274.086V37.1485H276.774L277.217 40.1845H277.407C277.723 39.573 278.113 39.0143 278.577 38.5083C279.062 38.0023 279.61 37.6018 280.221 37.3066C280.833 36.9903 281.497 36.8322 282.214 36.8322ZM292.737 36.8322C294.74 36.8322 296.247 37.3066 297.259 38.2553C298.292 39.183 298.809 40.6483 298.809 42.6512V54.1943H296.374L295.709 51.8225H295.583C295.098 52.4339 294.613 52.9399 294.128 53.3405C293.664 53.741 293.116 54.0362 292.484 54.226C291.872 54.4157 291.113 54.5106 290.207 54.5106C289.258 54.5106 288.404 54.3314 287.645 53.973C286.886 53.5935 286.285 53.0242 285.842 52.2652C285.4 51.4851 285.178 50.5153 285.178 49.3557C285.178 47.6269 285.79 46.3092 287.013 45.4026C288.256 44.496 290.143 44.0005 292.673 43.9162L295.393 43.8213V42.8726C295.393 41.6076 295.13 40.7221 294.603 40.2161C294.097 39.7101 293.38 39.4571 292.452 39.4571C291.672 39.4571 290.902 39.5836 290.143 39.8366C289.384 40.0896 288.646 40.3953 287.93 40.7537L286.886 38.3186C287.666 37.8969 288.552 37.549 289.543 37.275C290.555 36.9798 291.619 36.8322 292.737 36.8322ZM293.338 46.0667C291.609 46.151 290.407 46.4778 289.732 47.0471C289.058 47.5953 288.72 48.3753 288.72 49.3873C288.72 50.2728 288.952 50.9159 289.416 51.3165C289.901 51.717 290.523 51.9173 291.282 51.9173C292.441 51.9173 293.411 51.5484 294.191 50.8105C294.993 50.0725 295.393 48.9657 295.393 47.4898V46.0035L293.338 46.0667ZM321.703 36.8322C323.516 36.8322 324.876 37.3277 325.782 38.3186C326.71 39.3095 327.174 40.9013 327.174 43.094V54.1943H323.758V43.5367C323.758 42.2295 323.516 41.2492 323.031 40.5956C322.567 39.9209 321.84 39.5836 320.849 39.5836C319.478 39.5836 318.498 40.058 317.908 41.0067C317.338 41.9344 317.054 43.2837 317.054 45.0547V54.1943H313.607V43.5367C313.607 42.6723 313.501 41.9449 313.29 41.3546C313.08 40.7643 312.763 40.3215 312.342 40.0263C311.92 39.7312 311.372 39.5836 310.697 39.5836C309.748 39.5836 309 39.8155 308.452 40.2793C307.904 40.7432 307.514 41.4284 307.282 42.335C307.05 43.2205 306.934 44.3063 306.934 45.5923V54.1943H303.518V37.1485H306.206L306.712 39.4255H306.871C307.208 38.8351 307.608 38.3502 308.072 37.9707C308.557 37.5912 309.105 37.3066 309.717 37.1168C310.328 36.9271 310.961 36.8322 311.614 36.8322C312.816 36.8322 313.828 37.0641 314.65 37.528C315.473 37.9707 316.084 38.6559 316.485 39.5836H316.706C317.212 38.6348 317.918 37.9391 318.825 37.4963C319.731 37.0536 320.691 36.8322 321.703 36.8322Z" fill="black"/>
</svg>
