<svg width="441" height="89" viewBox="0 0 441 89" fill="none" xmlns="http://www.w3.org/2000/svg">
<rect x="0.914062" y="0.194336" width="439.236" height="87.8472" rx="31.625" fill="white"/>
<path d="M113.834 43.9795C113.834 41.4705 114.087 39.3411 114.593 37.5912C115.12 35.8413 115.942 34.4498 117.06 33.4167C118.177 32.3625 119.643 31.6457 121.456 31.2662C122.636 31.0132 123.817 30.7813 124.998 30.5705C126.178 30.3596 127.306 30.1699 128.382 30.0012L128.856 32.9423C128.329 33.0056 127.76 33.0899 127.148 33.1953C126.537 33.3008 125.915 33.4062 125.282 33.5116C124.65 33.617 124.038 33.7224 123.448 33.8278C122.879 33.9333 122.373 34.0387 121.93 34.1441C121.192 34.2706 120.549 34.492 120.001 34.8082C119.474 35.1245 119.031 35.5461 118.673 36.0732C118.314 36.6003 118.03 37.275 117.819 38.0972C117.608 38.8984 117.481 39.8788 117.439 41.0383H117.629C117.882 40.6378 118.24 40.2266 118.704 39.805C119.168 39.3833 119.727 39.0354 120.38 38.7613C121.055 38.4662 121.814 38.3186 122.657 38.3186C123.986 38.3186 125.124 38.6348 126.073 39.2673C127.022 39.8788 127.739 40.7537 128.223 41.8922C128.708 43.0096 128.951 44.3484 128.951 45.9086C128.951 47.8272 128.624 49.4295 127.97 50.7156C127.338 51.9806 126.452 52.9293 125.314 53.5618C124.197 54.1943 122.879 54.5106 121.361 54.5106C120.222 54.5106 119.189 54.2892 118.262 53.8465C117.334 53.3826 116.543 52.708 115.89 51.8225C115.236 50.9159 114.73 49.809 114.372 48.5018C114.013 47.1947 113.834 45.6872 113.834 43.9795ZM121.614 51.7592C122.373 51.7592 123.026 51.58 123.575 51.2216C124.144 50.8632 124.587 50.2834 124.903 49.4822C125.219 48.681 125.377 47.6058 125.377 46.2565C125.377 44.633 125.114 43.347 124.587 42.3982C124.059 41.4495 123.185 40.9751 121.962 40.9751C121.203 40.9751 120.507 41.1754 119.874 41.576C119.242 41.9555 118.704 42.3877 118.262 42.8726C117.84 43.3575 117.534 43.7686 117.344 44.106C117.344 45.0969 117.408 46.0456 117.534 46.9522C117.682 47.8588 117.914 48.6705 118.23 49.3873C118.546 50.1042 118.968 50.684 119.495 51.1267C120.043 51.5484 120.749 51.7592 121.614 51.7592ZM147.205 45.6556C147.205 47.0682 147.025 48.3226 146.667 49.419C146.309 50.5153 145.792 51.443 145.117 52.202C144.464 52.961 143.663 53.5408 142.714 53.9413C141.765 54.3208 140.7 54.5106 139.52 54.5106C138.444 54.5106 137.443 54.3208 136.515 53.9413C135.588 53.5408 134.787 52.961 134.112 52.202C133.437 51.443 132.91 50.5153 132.531 49.419C132.172 48.3226 131.993 47.0576 131.993 45.624C131.993 43.7475 132.299 42.1558 132.91 40.8486C133.522 39.5414 134.396 38.5505 135.535 37.8758C136.695 37.1801 138.065 36.8322 139.646 36.8322C141.122 36.8322 142.429 37.1801 143.568 37.8758C144.706 38.5505 145.592 39.5414 146.224 40.8486C146.878 42.1558 147.205 43.7581 147.205 45.6556ZM135.535 45.6556C135.535 46.9206 135.672 48.0169 135.946 48.9446C136.241 49.8512 136.684 50.5469 137.274 51.0318C137.886 51.5168 138.655 51.7592 139.583 51.7592C140.532 51.7592 141.301 51.5168 141.892 51.0318C142.503 50.5469 142.946 49.8512 143.22 48.9446C143.515 48.0169 143.663 46.9206 143.663 45.6556C143.663 44.3484 143.515 43.2521 143.22 42.3666C142.925 41.4811 142.482 40.8064 141.892 40.3426C141.301 39.8577 140.521 39.6152 139.551 39.6152C138.139 39.6152 137.116 40.1423 136.484 41.1965C135.851 42.2506 135.535 43.737 135.535 45.6556ZM162.934 39.8366H157.653V54.1943H154.269V39.8366H149.051V37.1485H162.934V39.8366ZM180.474 31.6141C182.287 31.6141 183.805 31.7933 185.028 32.1517C186.251 32.5101 187.168 33.111 187.779 33.9543C188.391 34.7766 188.696 35.8729 188.696 37.2433C188.696 38.1288 188.549 38.9195 188.254 39.6152C187.958 40.2899 187.526 40.8591 186.957 41.323C186.388 41.7657 185.713 42.0609 184.933 42.2085V42.3666C185.734 42.5142 186.472 42.7883 187.147 43.1888C187.821 43.5683 188.348 44.127 188.728 44.865C189.129 45.6029 189.329 46.5622 189.329 47.7428C189.329 49.1133 189.023 50.2834 188.412 51.2532C187.8 52.202 186.925 52.9293 185.787 53.4353C184.669 53.9413 183.331 54.1943 181.77 54.1943H174.086V31.6141H180.474ZM180.917 41.0383C182.519 41.0383 183.615 40.7537 184.206 40.1845C184.796 39.6152 185.091 38.7719 185.091 37.6545C185.091 36.516 184.733 35.7043 184.016 35.2193C183.299 34.7344 182.161 34.492 180.6 34.492H177.596V41.0383H180.917ZM177.596 43.8213V51.3481H181.264C182.909 51.3481 184.058 50.9897 184.712 50.2728C185.365 49.556 185.692 48.6073 185.692 47.4266C185.692 46.7098 185.544 46.0773 185.249 45.5291C184.954 44.9809 184.469 44.5593 183.794 44.2641C183.141 43.9689 182.245 43.8213 181.106 43.8213H177.596ZM209.984 54.1943H205.905L197.176 42.7461V54.1943H193.666V31.6141H197.176V42.5563L205.715 31.6141H209.573L201.035 42.5563L209.984 54.1943ZM226.669 45.6556C226.669 47.0682 226.489 48.3226 226.131 49.419C225.773 50.5153 225.256 51.443 224.581 52.202C223.928 52.961 223.127 53.5408 222.178 53.9413C221.229 54.3208 220.164 54.5106 218.984 54.5106C217.908 54.5106 216.907 54.3208 215.979 53.9413C215.052 53.5408 214.251 52.961 213.576 52.202C212.901 51.443 212.374 50.5153 211.995 49.419C211.636 48.3226 211.457 47.0576 211.457 45.624C211.457 43.7475 211.763 42.1558 212.374 40.8486C212.986 39.5414 213.86 38.5505 214.999 37.8758C216.159 37.1801 217.529 36.8322 219.11 36.8322C220.586 36.8322 221.893 37.1801 223.032 37.8758C224.17 38.5505 225.056 39.5414 225.688 40.8486C226.342 42.1558 226.669 43.7581 226.669 45.6556ZM214.999 45.6556C214.999 46.9206 215.136 48.0169 215.41 48.9446C215.705 49.8512 216.148 50.5469 216.738 51.0318C217.35 51.5168 218.119 51.7592 219.047 51.7592C219.996 51.7592 220.765 51.5168 221.356 51.0318C221.967 50.5469 222.41 49.8512 222.684 48.9446C222.979 48.0169 223.127 46.9206 223.127 45.6556C223.127 44.3484 222.979 43.2521 222.684 42.3666C222.389 41.4811 221.946 40.8064 221.356 40.3426C220.765 39.8577 219.985 39.6152 219.015 39.6152C217.603 39.6152 216.58 40.1423 215.948 41.1965C215.315 42.2506 214.999 43.737 214.999 45.6556ZM233.979 37.1485V44.0743H241.538V37.1485H244.953V54.1943H241.538V46.7625H233.979V54.1943H230.564V37.1485H233.979ZM261.886 39.8366H256.605V54.1943H253.221V39.8366H248.003V37.1485H261.886V39.8366ZM271.42 36.8322C273.423 36.8322 274.93 37.3066 275.942 38.2553C276.975 39.183 277.492 40.6483 277.492 42.6512V54.1943H275.057L274.393 51.8225H274.266C273.781 52.4339 273.296 52.9399 272.811 53.3405C272.348 53.741 271.799 54.0362 271.167 54.226C270.556 54.4157 269.797 54.5106 268.89 54.5106C267.941 54.5106 267.087 54.3314 266.328 53.973C265.569 53.5935 264.968 53.0242 264.526 52.2652C264.083 51.4851 263.862 50.5153 263.862 49.3557C263.862 47.6269 264.473 46.3092 265.696 45.4026C266.94 44.496 268.827 44.0005 271.357 43.9162L274.076 43.8213V42.8726C274.076 41.6076 273.813 40.7221 273.286 40.2161C272.78 39.7101 272.063 39.4571 271.135 39.4571C270.355 39.4571 269.586 39.5836 268.827 39.8366C268.068 40.0896 267.33 40.3953 266.613 40.7537L265.569 38.3186C266.349 37.8969 267.235 37.549 268.226 37.275C269.238 36.9798 270.303 36.8322 271.42 36.8322ZM272.021 46.0667C270.292 46.151 269.09 46.4778 268.416 47.0471C267.741 47.5953 267.404 48.3753 267.404 49.3873C267.404 50.2728 267.635 50.9159 268.099 51.3165C268.584 51.717 269.206 51.9173 269.965 51.9173C271.125 51.9173 272.095 51.5484 272.875 50.8105C273.676 50.0725 274.076 48.9657 274.076 47.4898V46.0035L272.021 46.0667ZM292.163 37.1485H295.927L289.317 45.3393L296.496 54.1943H292.543L285.617 45.5607V54.1943H282.202V37.1485H285.617V45.4342L292.163 37.1485ZM311.207 39.8366H305.926V54.1943H302.542V39.8366H297.324V37.1485H311.207V39.8366ZM320.463 36.8322C321.876 36.8322 323.099 37.1485 324.132 37.781C325.165 38.3924 325.956 39.2779 326.504 40.4375C327.073 41.597 327.358 42.9675 327.358 44.5487V46.383H316.637C316.679 48.1329 317.101 49.4717 317.902 50.3993C318.703 51.327 319.831 51.7908 321.286 51.7908C322.319 51.7908 323.236 51.696 324.037 51.5062C324.859 51.2954 325.692 50.9897 326.535 50.5891V53.3721C325.734 53.7516 324.912 54.0362 324.069 54.226C323.246 54.4157 322.245 54.5106 321.064 54.5106C319.525 54.5106 318.155 54.1838 316.953 53.5302C315.751 52.8766 314.813 51.9068 314.138 50.6207C313.464 49.3135 313.126 47.7112 313.126 45.8137C313.126 43.8951 313.432 42.2717 314.044 40.9435C314.655 39.6152 315.509 38.6032 316.605 37.9075C317.723 37.1906 319.009 36.8322 320.463 36.8322ZM320.463 39.4255C319.388 39.4255 318.524 39.8155 317.87 40.5956C317.217 41.3757 316.837 42.4825 316.732 43.9162H323.974C323.974 43.0307 323.847 42.2506 323.594 41.576C323.341 40.9013 322.951 40.3742 322.424 39.9947C321.918 39.6152 321.265 39.4255 320.463 39.4255Z" fill="black"/>
</svg>
